<svg width="41" height="41" viewBox="0 0 41 41" fill="none" xmlns="http://www.w3.org/2000/svg">
<rect width="41" height="41" fill="#5261F5"/>
<path d="M4.15415 3.99998H8.30833V1.59998H1.98675V10.8H4.15415V3.99998ZM33.0528 3.99998H37.207V10.8H39.3744V1.59998H33.0528V3.99998ZM37.207 36.6H33.0528V39H39.3744V29.8H37.207V36.6ZM4.15415 29.8H1.98675V39H8.30833V36.6H4.15415V29.8ZM11.9207 29.8L8.48895 39.2H10.837L11.3788 37.4H14.6299L15.1718 39.2H17.5198L14.0881 29.8H11.9207ZM11.9207 35.4L13.0044 32.4L13.9075 35.4H11.9207ZM24.2026 34.4L24.022 34.2L24.7445 33.4L25.1057 32.2C25.1057 31.4 24.7445 30.8 24.3832 30.4C23.8414 30 23.1189 29.8 22.0352 29.8H18.0616V39.2H22.2158C23.2995 39.2 24.022 39 24.5638 38.6C25.1057 38 25.4669 37.4 25.4669 36.6C25.4701 36.1373 25.3524 35.6836 25.1281 35.2933C24.9038 34.9029 24.5824 34.5927 24.2026 34.4ZM20.229 31.6H21.674L22.5771 31.8L22.9383 32.6L22.5771 33.2L21.674 33.4H20.229V31.6ZM22.9383 37L22.0352 37.2H20.229V35.4H22.0352L22.9383 35.6L23.2995 36.4L22.9383 37ZM10.4757 29.6L9.57265 28.2C9.21142 28.6 8.85018 29 8.48895 29L7.9471 28.8L7.58587 28.4L9.0308 27.4C9.42291 26.913 9.72124 26.3426 9.90757 25.7236C10.0939 25.1046 10.1643 24.4501 10.1145 23.8L9.93388 21.8L9.0308 20.2L7.58587 19.2L5.96031 18.8L4.15415 19.2L2.88983 20.2C2.47403 20.6772 2.14811 21.2413 1.93105 21.8593C1.71399 22.4774 1.61013 23.1371 1.62551 23.8C1.65895 25.066 2.10852 26.275 2.88983 27.2C3.45678 27.9136 4.21717 28.4048 5.05723 28.6C5.56798 29.1708 6.11092 29.7052 6.68278 30.2L7.40525 30.6L8.48895 30.8C9.39203 30.8 9.93388 30.4 10.4757 29.6ZM4.33476 25.8L3.97353 24.8L3.79291 23.8L3.97353 22.6L4.33476 21.8L5.05723 21.2L5.96031 21L6.68278 21.2L7.40525 21.8L7.76648 22.6L7.9471 23.8L7.76648 24.8L7.40525 25.8L6.68278 26.2L5.96031 26.4L5.05723 26.2L4.33476 25.8ZM13.5462 26H14.6299L16.0749 28.6H18.4229L16.7973 25.6L17.881 24.4L18.2423 22.6L17.881 20.6L16.6167 19.4L14.8105 19H11.3788V28.6H13.5462V26ZM15.7136 21.6C15.8942 21.8 16.0749 22 16.0749 22.6L15.7136 23.6L14.6299 24H13.5462V21.2H14.6299C15.1718 21.2 15.533 21.2 15.7136 21.6Z" fill="white"/>
</svg>
